<mxfile host="app.diagrams.net" modified="2024-05-23T16:09:32.178Z" agent="Mozilla/5.0 (Macintosh; Intel Mac OS X 10_15_7) AppleWebKit/537.36 (KHTML, like Gecko) Chrome/124.0.0.0 Safari/537.36" version="24.4.6" etag="ZFoYq6aBm5N1AOBojB8R" type="github">
  <diagram name="Page-1" id="osjaCULI0XQIl8TjNg4v">
    <mxGraphModel>
      <root>
        <mxCell id="0" />
        <mxCell id="1" parent="0" />
      </root>
    </mxGraphModel>
  </diagram>
</mxfile>
